<svg height="512" viewBox="0 0 128 128" width="512" xmlns="http://www.w3.org/2000/svg" xmlns:xlink="http://www.w3.org/1999/xlink"><linearGradient id="a" gradientUnits="userSpaceOnUse" x1="106.482" x2="21.521" y1="105.488" y2="20.527"><stop offset="0" stop-color="#fc68c0"/><stop offset="1" stop-color="#3edbff"/></linearGradient><path d="m109.76 58.6v1.375a1.75 1.75 0 0 1 -3.5 0v-1.375a1.75 1.75 0 1 1 3.5 0zm0-30.17v18.643a1.75 1.75 0 0 1 -3.5 0v-18.646a7.686 7.686 0 0 0 -7.677-7.677h-69.154a7.692 7.692 0 0 0 -7.689 7.677v61.705l3.3-4.691a1.75 1.75 0 0 1 2.86 2.014l-6.16 8.762v1.364a7.7 7.7 0 0 0 7.689 7.688h6.4l18.578-26.445-6.863-9.765a4.083 4.083 0 0 0 -3.358-1.431 4.083 4.083 0 0 0 -3.355 1.429l-5.619 8a1.75 1.75 0 1 1 -2.863-2.012l5.618-8a7.489 7.489 0 0 1 6.219-2.918 7.491 7.491 0 0 1 6.222 2.919l6.138 8.733 13.584-19.338a8.114 8.114 0 0 1 12.453 0l23.677 33.7v-18.592a1.75 1.75 0 0 1 3.5 0v26.032a11.2 11.2 0 0 1 -11.177 11.188h-69.154a11.2 11.2 0 0 1 -11.189-11.188v-69.154a11.2 11.2 0 0 1 11.189-11.177h69.154a11.19 11.19 0 0 1 11.177 11.177zm-69.65 76.839h58.473a7.691 7.691 0 0 0 7.677-7.688v-1.353l-26.542-37.775a4.084 4.084 0 0 0 -3.351-1.422h-.008a4.1 4.1 0 0 0 -3.367 1.424zm11.941-79.917a13.7 13.7 0 1 1 -13.7 13.7 13.715 13.715 0 0 1 13.7-13.7zm0 3.5a10.2 10.2 0 1 0 10.2 10.2 10.21 10.21 0 0 0 -10.2-10.2z" fill="url(#a)"/></svg>